<svg width="127" height="62" viewBox="0 0 127 62" fill="none" xmlns="http://www.w3.org/2000/svg">
<path d="M44.8613 8.98257V9.91477C44.8613 10.0627 44.9131 10.1885 45.0167 10.2921C45.1203 10.3957 45.246 10.4475 45.394 10.4475H51.4089C51.5569 10.4475 51.6827 10.4993 51.7862 10.6028C51.8898 10.7064 51.9416 10.8322 51.9416 10.9801V14.0431C51.9416 14.1911 51.8898 14.3168 51.7862 14.4204C51.6827 14.524 51.5569 14.5758 51.4089 14.5758H45.394C45.246 14.5758 45.1203 14.6276 45.0167 14.7312C44.9131 14.8347 44.8613 14.9605 44.8613 15.1085V15.9519C44.8613 16.0999 44.9131 16.2256 45.0167 16.3292C45.1203 16.4328 45.246 16.4846 45.394 16.4846H52.2967C52.4447 16.4846 52.5705 16.5364 52.6741 16.64C52.7776 16.7435 52.8294 16.8693 52.8294 17.0173V20.0802C52.8294 20.2282 52.7776 20.354 52.6741 20.4575C52.5705 20.5611 52.4447 20.6129 52.2967 20.6129H40.9993C40.8514 20.6129 40.7256 20.5611 40.622 20.4575C40.5184 20.354 40.4666 20.2282 40.4666 20.0802V4.89864C40.4666 4.75067 40.5184 4.62489 40.622 4.52131C40.7256 4.41774 40.8514 4.36595 40.9993 4.36595H52.2967C52.4447 4.36595 52.5705 4.41774 52.6741 4.52131C52.7776 4.62489 52.8294 4.75067 52.8294 4.89864V7.9172C52.8294 8.06517 52.7776 8.19094 52.6741 8.29452C52.5705 8.3981 52.4447 8.44988 52.2967 8.44988H45.394C45.246 8.44988 45.1203 8.50167 45.0167 8.60525C44.9131 8.70883 44.8613 8.8346 44.8613 8.98257ZM70.8983 16.2848C70.4692 16.9803 69.9957 17.6165 69.4778 18.1936C68.9599 18.7559 68.3754 19.2368 67.7244 19.6363C67.0881 20.0358 66.3779 20.3466 65.5936 20.5685C64.8094 20.7905 63.9438 20.9015 62.9968 20.9015C61.813 20.9015 60.7033 20.6795 59.6675 20.2356C58.6317 19.7917 57.7217 19.1924 56.9375 18.4378C56.168 17.6831 55.5614 16.7953 55.1174 15.7743C54.6735 14.7534 54.4516 13.6658 54.4516 12.5116C54.4516 11.3575 54.6735 10.2699 55.1174 9.24892C55.5614 8.22793 56.168 7.34012 56.9375 6.58548C57.7217 5.83084 58.6317 5.23156 59.6675 4.78766C60.7033 4.34375 61.813 4.1218 62.9968 4.1218C63.9734 4.1218 64.8538 4.23278 65.638 4.45473C66.4223 4.67668 67.1325 4.98742 67.7688 5.38693C68.405 5.78645 68.9747 6.27474 69.4778 6.85182C69.9957 7.4141 70.4692 8.03557 70.8983 8.71623C70.9723 8.8346 70.9871 8.96038 70.9427 9.09355C70.8983 9.22672 70.8095 9.3229 70.6764 9.38209L67.5246 10.625C67.3767 10.6842 67.2287 10.6842 67.0807 10.625C66.9328 10.5658 66.8218 10.4771 66.7478 10.3587C66.3187 9.67803 65.8008 9.16013 65.1941 8.80501C64.5874 8.43509 63.855 8.25013 62.9968 8.25013C62.4345 8.25013 61.9018 8.3685 61.3987 8.60525C60.9104 8.842 60.4813 9.16013 60.1114 9.55965C59.7415 9.94437 59.4529 10.3957 59.2458 10.9136C59.0386 11.4315 58.935 11.9641 58.935 12.5116C58.935 13.0739 59.0386 13.614 59.2458 14.1319C59.4529 14.635 59.7415 15.0789 60.1114 15.4636C60.4813 15.8483 60.9104 16.1591 61.3987 16.3958C61.9018 16.6326 62.4345 16.7509 62.9968 16.7509C63.8106 16.7509 64.5431 16.5586 65.1941 16.1739C65.86 15.7743 66.3853 15.2638 66.77 14.6424C66.844 14.524 66.9475 14.4352 67.0807 14.376C67.2287 14.3168 67.3767 14.3168 67.5246 14.376L70.6764 15.619C70.8095 15.6782 70.8983 15.7743 70.9427 15.9075C70.9871 16.0259 70.9723 16.1517 70.8983 16.2848ZM71.8577 12.4894C71.8577 11.3353 72.0797 10.2477 72.5236 9.22672C72.9675 8.20574 73.5668 7.31792 74.3214 6.56328C75.0761 5.79384 75.9639 5.18717 76.9849 4.74327C78.0058 4.29936 79.0934 4.07741 80.2476 4.07741C81.4017 4.07741 82.4893 4.29936 83.5103 4.74327C84.5313 5.18717 85.4191 5.79384 86.1737 6.56328C86.9432 7.31792 87.5498 8.20574 87.9937 9.22672C88.4376 10.2477 88.6596 11.3353 88.6596 12.4894C88.6596 13.6436 88.4376 14.7312 87.9937 15.7521C87.5498 16.7731 86.9432 17.6683 86.1737 18.4378C85.4191 19.1924 84.5313 19.7917 83.5103 20.2356C82.4893 20.6795 81.4017 20.9015 80.2476 20.9015C79.0934 20.9015 78.0058 20.6795 76.9849 20.2356C75.9639 19.7917 75.0761 19.1924 74.3214 18.4378C73.5668 17.6683 72.9675 16.7731 72.5236 15.7521C72.0797 14.7312 71.8577 13.6436 71.8577 12.4894ZM76.2524 12.4894C76.2524 13.0517 76.356 13.5844 76.5631 14.0875C76.7703 14.5906 77.0514 15.0345 77.4066 15.4192C77.7765 15.8039 78.2056 16.1147 78.6939 16.3514C79.1822 16.5734 79.7001 16.6843 80.2476 16.6843C80.7951 16.6843 81.3129 16.5734 81.8012 16.3514C82.2895 16.1147 82.7186 15.8039 83.0886 15.4192C83.4585 15.0345 83.747 14.5906 83.9542 14.0875C84.1613 13.5844 84.2649 13.0517 84.2649 12.4894C84.2649 11.9419 84.1613 11.4167 83.9542 10.9136C83.747 10.3957 83.4585 9.95177 83.0886 9.58185C82.7186 9.19713 82.2895 8.89379 81.8012 8.67184C81.3129 8.43509 80.7951 8.31671 80.2476 8.31671C79.7001 8.31671 79.1822 8.43509 78.6939 8.67184C78.2056 8.89379 77.7765 9.19713 77.4066 9.58185C77.0514 9.95177 76.7703 10.3957 76.5631 10.9136C76.356 11.4167 76.2524 11.9419 76.2524 12.4894ZM106.219 4.89864V20.0802C106.219 20.2282 106.167 20.354 106.063 20.4575C105.96 20.5611 105.834 20.6129 105.686 20.6129H102.401C102.253 20.6129 102.098 20.5685 101.935 20.4797C101.772 20.391 101.647 20.2874 101.558 20.169L95.7649 12.0233C95.6761 11.905 95.5799 11.8606 95.4763 11.8902C95.3875 11.905 95.3432 11.9863 95.3432 12.1343V20.0802C95.3432 20.2282 95.2914 20.354 95.1878 20.4575C95.0842 20.5611 94.9584 20.6129 94.8105 20.6129H91.5034C91.3554 20.6129 91.2296 20.5611 91.126 20.4575C91.0225 20.354 90.9707 20.2282 90.9707 20.0802V4.89864C90.9707 4.75067 91.0225 4.62489 91.126 4.52131C91.2296 4.41774 91.3554 4.36595 91.5034 4.36595H94.8327C94.9806 4.36595 95.136 4.41034 95.2988 4.49912C95.4615 4.5731 95.5873 4.66928 95.6761 4.78766L101.447 12.9333C101.536 13.0517 101.624 13.1035 101.713 13.0887C101.817 13.0739 101.869 12.9925 101.869 12.8446V4.89864C101.869 4.75067 101.92 4.62489 102.024 4.52131C102.128 4.41774 102.253 4.36595 102.401 4.36595H105.686C105.834 4.36595 105.96 4.41774 106.063 4.52131C106.167 4.62489 106.219 4.75067 106.219 4.89864ZM109.59 20.0802V4.89864C109.59 4.75067 109.642 4.62489 109.745 4.52131C109.849 4.41774 109.975 4.36595 110.123 4.36595H116.182C118.505 4.36595 120.407 5.0466 121.886 6.40792C122.685 7.14776 123.292 8.02817 123.706 9.04916C124.121 10.0701 124.328 11.2169 124.328 12.4894C124.328 13.762 124.121 14.9161 123.706 15.9519C123.292 16.9729 122.685 17.8533 121.886 18.5931C121.146 19.259 120.296 19.7621 119.334 20.1024C118.387 20.4428 117.336 20.6129 116.182 20.6129H110.123C109.975 20.6129 109.849 20.5611 109.745 20.4575C109.642 20.354 109.59 20.2282 109.59 20.0802ZM114.517 16.529H116.182C116.596 16.529 117.026 16.4772 117.469 16.3736C117.913 16.27 118.313 16.0777 118.668 15.7965C119.023 15.5006 119.312 15.0937 119.534 14.5758C119.77 14.0431 119.889 13.355 119.889 12.5116C119.889 11.6682 119.77 10.9875 119.534 10.4697C119.312 9.93697 119.016 9.53006 118.646 9.24892C118.291 8.95298 117.891 8.75322 117.447 8.64964C117.018 8.54606 116.596 8.49428 116.182 8.49428H114.517C114.37 8.49428 114.244 8.54606 114.14 8.64964C114.037 8.75322 113.985 8.87899 113.985 9.02696V15.9963C113.985 16.1443 114.037 16.27 114.14 16.3736C114.244 16.4772 114.37 16.529 114.517 16.529ZM47.3472 38.2404H45.4162C45.2682 38.2404 45.1424 38.2922 45.0389 38.3958C44.9353 38.4994 44.8835 38.6252 44.8835 38.7731V42.0802C44.8835 42.2282 44.8317 42.354 44.7281 42.4575C44.6246 42.5611 44.4988 42.6129 44.3508 42.6129H40.9993C40.8514 42.6129 40.7256 42.5611 40.622 42.4575C40.5184 42.354 40.4666 42.2282 40.4666 42.0802V26.8986C40.4666 26.7507 40.5184 26.6249 40.622 26.5213C40.7256 26.4177 40.8514 26.3659 40.9993 26.3659H47.7911C48.6197 26.3659 49.3965 26.5213 50.1216 26.832C50.8614 27.1428 51.4977 27.5719 52.0304 28.1194C52.5779 28.6669 53.007 29.3031 53.3177 30.0282C53.6433 30.7532 53.806 31.5301 53.806 32.3587C53.806 33.1873 53.6728 33.9641 53.4065 34.6892C53.1402 35.3994 52.7332 36.0209 52.1858 36.5536C51.6531 37.0715 50.9798 37.4858 50.166 37.7965C49.367 38.0925 48.4274 38.2404 47.3472 38.2404ZM47.5025 30.4499H45.4162C45.2682 30.4499 45.1424 30.5017 45.0389 30.6053C44.9353 30.7088 44.8835 30.8346 44.8835 30.9826V33.6016C44.8835 33.7496 44.9353 33.8754 45.0389 33.9789C45.1424 34.0825 45.2682 34.1343 45.4162 34.1343H47.7911C48.3534 34.1343 48.7603 33.9567 49.0118 33.6016C49.2782 33.2317 49.4113 32.8174 49.4113 32.3587C49.4113 32.1219 49.367 31.8926 49.2782 31.6706C49.2042 31.4339 49.0858 31.2267 48.923 31.0492C48.7603 30.8716 48.5605 30.731 48.3238 30.6274C48.087 30.5091 47.8133 30.4499 47.5025 30.4499ZM58.9167 26.8764C58.9758 26.7433 59.072 26.6323 59.2052 26.5435C59.3532 26.4399 59.5085 26.3881 59.6713 26.3881H62.7786C62.9266 26.3881 63.0672 26.4399 63.2004 26.5435C63.3483 26.6323 63.4519 26.7433 63.5111 26.8764L69.9921 41.9693C70.0513 42.1024 70.0365 42.243 69.9477 42.391C69.8737 42.5389 69.7184 42.6129 69.4816 42.6129H65.6862C65.5235 42.6129 65.3681 42.5685 65.2201 42.4797C65.087 42.3762 64.9834 42.2578 64.9094 42.1246L64.3101 40.7929C64.2361 40.6597 64.1252 40.5488 63.9772 40.46C63.844 40.3564 63.7034 40.3046 63.5555 40.3046H58.8723C58.7095 40.3046 58.5541 40.3564 58.4062 40.46C58.273 40.5488 58.1768 40.6597 58.1176 40.7929L57.4962 42.1246C57.437 42.2578 57.3334 42.3762 57.1854 42.4797C57.0523 42.5685 56.9117 42.6129 56.7637 42.6129H52.9461C52.8721 42.6129 52.7982 42.5981 52.7242 42.5685C52.6354 42.5389 52.5688 42.4945 52.5244 42.4354C52.4652 42.3762 52.4282 42.3022 52.4134 42.2134C52.3986 42.1246 52.4208 42.021 52.48 41.9027L58.9167 26.8764ZM60.2262 36.5314H62.2016C62.3495 36.5314 62.4531 36.487 62.5123 36.3982C62.5863 36.2946 62.5863 36.1763 62.5123 36.0431C62.3643 35.6732 62.1868 35.2441 61.9796 34.7558C61.7725 34.2527 61.5801 33.7866 61.4025 33.3575C61.3433 33.2243 61.2768 33.1577 61.2028 33.1577C61.1288 33.1577 61.0622 33.2243 61.003 33.3575L59.8933 36.0431C59.8341 36.1763 59.8341 36.2946 59.8933 36.3982C59.9524 36.487 60.0634 36.5314 60.2262 36.5314ZM86.3743 38.2848C85.9452 38.9803 85.4717 39.6165 84.9538 40.1936C84.4359 40.7559 83.8515 41.2368 83.2004 41.6363C82.5641 42.0358 81.8539 42.3466 81.0697 42.5685C80.2854 42.7905 79.4198 42.9015 78.4728 42.9015C77.2891 42.9015 76.1793 42.6795 75.1435 42.2356C74.1077 41.7917 73.1977 41.1924 72.4135 40.4378C71.6441 39.6831 71.0374 38.7953 70.5935 37.7743C70.1496 36.7534 69.9276 35.6658 69.9276 34.5116C69.9276 33.3575 70.1496 32.2699 70.5935 31.2489C71.0374 30.2279 71.6441 29.3401 72.4135 28.5855C73.1977 27.8308 74.1077 27.2316 75.1435 26.7877C76.1793 26.3438 77.2891 26.1218 78.4728 26.1218C79.4494 26.1218 80.3298 26.2328 81.1141 26.4547C81.8983 26.6767 82.6085 26.9874 83.2448 27.3869C83.8811 27.7864 84.4507 28.2747 84.9538 28.8518C85.4717 29.4141 85.9452 30.0356 86.3743 30.7162C86.4483 30.8346 86.4631 30.9604 86.4187 31.0935C86.3743 31.2267 86.2856 31.3229 86.1524 31.3821L83.0007 32.625C82.8527 32.6842 82.7047 32.6842 82.5567 32.625C82.4088 32.5658 82.2978 32.4771 82.2238 32.3587C81.7947 31.678 81.2768 31.1601 80.6701 30.805C80.0635 30.4351 79.331 30.2501 78.4728 30.2501C77.9105 30.2501 77.3778 30.3685 76.8747 30.6053C76.3864 30.842 75.9573 31.1601 75.5874 31.5596C75.2175 31.9444 74.929 32.3957 74.7218 32.9136C74.5146 33.4315 74.4111 33.9641 74.4111 34.5116C74.4111 35.0739 74.5146 35.614 74.7218 36.1319C74.929 36.635 75.2175 37.0789 75.5874 37.4636C75.9573 37.8483 76.3864 38.1591 76.8747 38.3958C77.3778 38.6326 77.9105 38.7509 78.4728 38.7509C79.2866 38.7509 80.0191 38.5586 80.6701 38.1739C81.336 37.7743 81.8613 37.2638 82.246 36.6424C82.32 36.524 82.4236 36.4352 82.5567 36.376C82.7047 36.3168 82.8527 36.3168 83.0007 36.376L86.1524 37.619C86.2856 37.6782 86.3743 37.7743 86.4187 37.9075C86.4631 38.0259 86.4483 38.1517 86.3743 38.2848ZM92.4165 30.9826V31.9148C92.4165 32.0627 92.4683 32.1885 92.5719 32.2921C92.6754 32.3957 92.8012 32.4475 92.9492 32.4475H98.9641C99.1121 32.4475 99.2379 32.4993 99.3414 32.6028C99.445 32.7064 99.4968 32.8322 99.4968 32.9801V36.0431C99.4968 36.1911 99.445 36.3168 99.3414 36.4204C99.2379 36.524 99.1121 36.5758 98.9641 36.5758H92.9492C92.8012 36.5758 92.6754 36.6276 92.5719 36.7312C92.4683 36.8347 92.4165 36.9605 92.4165 37.1085V37.9519C92.4165 38.0999 92.4683 38.2256 92.5719 38.3292C92.6754 38.4328 92.8012 38.4846 92.9492 38.4846H99.8519C99.9999 38.4846 100.126 38.5364 100.229 38.64C100.333 38.7435 100.385 38.8693 100.385 39.0173V42.0802C100.385 42.2282 100.333 42.354 100.229 42.4575C100.126 42.5611 99.9999 42.6129 99.8519 42.6129H88.5545C88.4065 42.6129 88.2808 42.5611 88.1772 42.4575C88.0736 42.354 88.0218 42.2282 88.0218 42.0802V26.8986C88.0218 26.7507 88.0736 26.6249 88.1772 26.5213C88.2808 26.4177 88.4065 26.3659 88.5545 26.3659H99.8519C99.9999 26.3659 100.126 26.4177 100.229 26.5213C100.333 26.6249 100.385 26.7507 100.385 26.8986V29.9172C100.385 30.0652 100.333 30.1909 100.229 30.2945C100.126 30.3981 99.9999 30.4499 99.8519 30.4499H92.9492C92.8012 30.4499 92.6754 30.5017 92.5719 30.6053C92.4683 30.7088 92.4165 30.8346 92.4165 30.9826Z" fill="#003049"/>
<path d="M8.36208 30.6797C10.5594 32.1039 12.7364 33.2229 14.8931 34.0367C17.0497 34.8506 19.0639 35.2575 20.9357 35.2575C22.7261 35.2575 24.0893 35.0133 25.0252 34.525C25.9611 33.996 26.4291 33.2229 26.4291 32.2056C26.4291 31.6766 26.2256 31.2697 25.8187 30.9849C25.4118 30.6593 24.8624 30.3948 24.1707 30.1914C23.5196 29.9879 22.7465 29.8252 21.8513 29.7031C20.9561 29.581 20.0405 29.4183 19.1046 29.2148C18.2094 29.052 17.1514 28.8689 15.9307 28.6655C14.7506 28.4213 13.5299 28.0958 12.2685 27.6889C11.007 27.2413 9.74559 26.6919 8.48416 26.0409C7.26342 25.3898 6.16475 24.5556 5.18815 23.5383C4.21156 22.5211 3.41808 21.3207 2.80771 19.9372C2.23803 18.513 1.95319 16.8446 1.95319 14.9321C1.95319 12.1244 2.50252 9.805 3.60119 7.97388C4.69986 6.14277 6.08336 4.69823 7.75171 3.64025C9.46075 2.54158 11.3529 1.78879 13.4282 1.38188C15.5034 0.934271 17.5176 0.710468 19.4708 0.710468C22.8889 0.710468 25.9408 1.21911 28.6264 2.2364C31.3527 3.21299 33.957 4.65754 36.4391 6.57003C36.7647 6.85487 36.9478 7.20075 36.9885 7.60766C37.0292 8.01458 36.9274 8.3808 36.6833 8.70633L31.9224 15.4814C31.6783 15.807 31.3527 16.0104 30.9458 16.0918C30.5389 16.1732 30.1727 16.0918 29.8471 15.8477C27.7719 14.5455 25.839 13.63 24.0486 13.101C22.2582 12.5313 20.6102 12.2465 19.1046 12.2465C18.657 12.2465 18.128 12.2668 17.5176 12.3075C16.948 12.3075 16.3986 12.3889 15.8696 12.5517C15.3407 12.6737 14.8931 12.8975 14.5268 13.2231C14.2013 13.5486 14.0385 13.9962 14.0385 14.5659C14.0385 15.1356 14.4658 15.6442 15.3203 16.0918C16.1748 16.5394 17.1514 16.926 18.2501 17.2515C19.3488 17.5771 20.4067 17.8415 21.424 18.045C22.4413 18.2078 23.0924 18.3095 23.3772 18.3502C24.8421 18.635 26.4494 19.0623 28.1991 19.632C29.9489 20.161 31.5765 20.9748 33.0821 22.0735C34.6284 23.1314 35.9102 24.5353 36.9274 26.285C37.9854 27.9941 38.5144 30.1507 38.5144 32.7549C38.5144 35.1964 38.0872 37.3124 37.2326 39.1028C36.3781 40.8525 35.1777 42.2971 33.6314 43.4364C32.1259 44.5758 30.2947 45.4303 28.1381 46C26.0222 46.529 23.6621 46.7935 21.0578 46.7935C18.9418 46.7935 16.9683 46.6104 15.1372 46.2441C13.3061 45.9186 11.597 45.4507 10.0101 44.8403C8.42312 44.2299 6.93788 43.5178 5.55438 42.704C4.21156 41.8495 2.97047 40.9543 1.83111 40.0184C1.50558 39.7742 1.32247 39.4487 1.28178 39.0418C1.24109 38.5942 1.34282 38.2076 1.58696 37.8821L6.28682 31.1069C6.53097 30.7814 6.8565 30.578 7.26342 30.4966C7.67033 30.4152 8.03655 30.4762 8.36208 30.6797Z" fill="#780000"/>
</svg>
