<svg width="38" height="47" viewBox="0 0 38 47" fill="none" xmlns="http://www.w3.org/2000/svg">
<path d="M7.14138 29.9692C9.33872 31.3934 11.5157 32.5124 13.6724 33.3262C15.829 34.1401 17.8432 34.547 19.715 34.547C21.5054 34.547 22.8686 34.3028 23.8045 33.8145C24.7404 33.2856 25.2084 32.5124 25.2084 31.4951C25.2084 30.9661 25.0049 30.5592 24.598 30.2744C24.1911 29.9489 23.6417 29.6844 22.95 29.4809C22.2989 29.2775 21.5258 29.1147 20.6306 28.9926C19.7354 28.8705 18.8198 28.7078 17.8839 28.5043C16.9887 28.3416 15.9307 28.1584 14.71 27.955C13.5299 27.7108 12.3092 27.3853 11.0478 26.9784C9.78632 26.5308 8.52489 25.9814 7.26345 25.3304C6.04271 24.6793 4.94404 23.8452 3.96745 22.8279C2.99086 21.8106 2.19737 20.6102 1.587 19.2267C1.01732 17.8025 0.732484 16.1341 0.732484 14.2216C0.732484 11.4139 1.28182 9.09452 2.38049 7.2634C3.47915 5.43229 4.86266 3.98775 6.53101 2.92977C8.24005 1.8311 10.1322 1.07831 12.2075 0.671399C14.2827 0.223792 16.2969 -1.18801e-05 18.2501 -1.18801e-05C21.6682 -1.18801e-05 24.7201 0.508631 27.4057 1.52592C30.132 2.50251 32.7363 3.94706 35.2184 5.85955C35.544 6.14439 35.7271 6.49027 35.7678 6.89718C35.8085 7.3041 35.7067 7.67032 35.4626 7.99585L30.7017 14.771C30.4576 15.0965 30.132 15.3 29.7251 15.3813C29.3182 15.4627 28.952 15.3813 28.6264 15.1372C26.5512 13.8351 24.6183 12.9195 22.8279 12.3905C21.0375 11.8208 19.3895 11.536 17.8839 11.536C17.4363 11.536 16.9073 11.5563 16.2969 11.597C15.7273 11.597 15.1779 11.6784 14.6489 11.8412C14.12 11.9633 13.6724 12.1871 13.3061 12.5126C12.9806 12.8381 12.8178 13.2857 12.8178 13.8554C12.8178 14.4251 13.2451 14.9337 14.0996 15.3813C14.9541 15.8289 15.9307 16.2155 17.0294 16.541C18.1281 16.8666 19.186 17.1311 20.2033 17.3345C21.2206 17.4973 21.8717 17.599 22.1565 17.6397C23.6214 17.9246 25.2287 18.3518 26.9784 18.9215C28.7282 19.4505 30.3558 20.2643 31.8614 21.363C33.4077 22.421 34.6895 23.8248 35.7067 25.5745C36.7647 27.2836 37.2937 29.4402 37.2937 32.0445C37.2937 34.486 36.8665 36.6019 36.0119 38.3923C35.1574 40.1421 33.957 41.5866 32.4107 42.726C30.9052 43.8653 29.074 44.7198 26.9174 45.2895C24.8014 45.8185 22.4413 46.083 19.8371 46.083C17.7211 46.083 15.7476 45.8999 13.9165 45.5337C12.0854 45.2081 10.3763 44.7402 8.78938 44.1298C7.20242 43.5194 5.71718 42.8073 4.33367 41.9935C2.99086 41.139 1.74977 40.2438 0.61041 39.3079C0.284879 39.0637 0.101768 38.7382 0.0610761 38.3313C0.0203847 37.8837 0.122113 37.4971 0.366262 37.1716L5.06612 30.3965C5.31027 30.0709 5.6358 29.8675 6.04271 29.7861C6.44963 29.7047 6.81585 29.7657 7.14138 29.9692Z" fill="#780000"/>
</svg>
